<?xml version="1.0" encoding="UTF-8"?>
<svg id="Layer_2" xmlns="http://www.w3.org/2000/svg" viewBox="0 0 97.79 32.92">
  <defs>
    <style>
      .cls-1 {
        fill: #231f20;
      }

      .cls-2 {
        fill: #5ca753;
      }

      .cls-3 {
        fill: #69cada;
      }

      .cls-4 {
        fill: #ef4136;
      }

      .cls-5 {
        fill: #fbb040;
      }
    </style>
  </defs>
  <g id="Layer_1-2" data-name="Layer_1">
    <path class="cls-5" d="M17.16,27.34c.7-2.03-.61-4.78-2.64-6.58-2.04-1.8-4.92-2.75-6.86-1.81-1.63.76-2.81,4.58-3.22,6.16-1.26,4.51-.83,6.55-.11,7.18.71.63,2.8.81,7.11-1,1.52-.6,5.17-2.25,5.72-3.96Z"/>
    <path class="cls-3" d="M30.38,24.69c-.54,2.08.96,4.72,3.13,6.36,2.16,1.64,5.12,2.38,6.97,1.29,1.56-.88,2.46-4.78,2.75-6.39.92-4.59.34-6.6-.42-7.17-.76-.58-2.85-.59-7.02,1.53-1.47.71-4.99,2.63-5.41,4.37Z"/>
    <path class="cls-4" d="M57.74,32.32c1.81,1.16,4.79.55,7.02-.99,2.23-1.55,3.85-4.12,3.4-6.22-.34-1.76-3.78-3.83-5.21-4.6-4.07-2.3-6.16-2.38-6.95-1.83-.78.54-1.45,2.52-.73,7.15.22,1.62.94,5.56,2.47,6.5Z"/>
    <path class="cls-2" d="M88.12,18.95c-1.9-1.01-4.82-.15-6.91,1.57-2.1,1.73-3.49,4.43-2.87,6.48.49,1.72,4.08,3.5,5.58,4.15,4.25,1.96,6.34,1.85,7.08,1.25.74-.61,1.24-2.64.13-7.18-.35-1.59-1.4-5.46-3-6.27Z"/>
    <g>
      <path class="cls-1" d="M2.5.27c.04-.15.19-.27.35-.27h.31c.13,0,.29.1.33.21l3.81,10.6h.1L11.14.21c.04-.12.19-.21.33-.21h.31c.15,0,.31.12.35.27l2.48,12.93c.06.27-.06.46-.35.46h-.77c-.15,0-.31-.13-.35-.27l-1.71-9.91h-.08l-3.54,10.16c-.04.12-.21.21-.33.21h-.35c-.12,0-.29-.1-.33-.21L3.23,3.48h-.08l-1.67,9.91c-.02.13-.19.27-.35.27H.36c-.29,0-.4-.19-.35-.46L2.5.27Z"/>
      <path class="cls-1" d="M17.56.65c0-.25.19-.46.46-.46h.56c.25,0,.46.21.46.46v5.45L25.05.38c.08-.1.25-.19.37-.19h.94c.35,0,.54.38.23.67l-6.08,5.68,6.37,6.52c.13.13.1.6-.33.6h-.98c-.13,0-.31-.08-.35-.13l-6.18-6.45v6.12c0,.25-.21.46-.46.46h-.56c-.27,0-.46-.21-.46-.46V.65Z"/>
      <path class="cls-1" d="M39.69,0c1.94,0,3.35.67,4.66,1.79.15.15.17.38.02.54-.17.17-.39.37-.54.54-.17.19-.29.17-.5-.02-.98-.87-2.37-1.5-3.66-1.5-3.04,0-5.35,2.54-5.35,5.52s2.31,5.56,5.35,5.56c2.12,0,3.46-.81,3.46-.81v-2.69h-2.21c-.21,0-.37-.15-.37-.35v-.71c0-.21.15-.37.37-.37h3.33c.19,0,.35.17.35.37v4.41c0,.1-.08.25-.15.31,0,0-1.96,1.27-4.75,1.27-3.85,0-6.95-3.06-6.95-6.91s3.1-6.95,6.95-6.95Z"/>
      <path class="cls-1" d="M47.64.56c0-.19.17-.37.37-.37h.73c.21,0,.37.17.37.37v8.02c0,2.19,1.37,3.91,3.62,3.91s3.66-1.67,3.66-3.87V.56c0-.19.15-.37.37-.37h.73c.19,0,.37.17.37.37v8.14c0,2.92-2.08,5.16-5.12,5.16s-5.08-2.23-5.08-5.16V.56Z"/>
      <path class="cls-1" d="M61.59.56c0-.19.17-.37.37-.37h.77c.19,0,.37.17.37.37v12.74c0,.19-.17.37-.37.37h-.77c-.19,0-.37-.17-.37-.37V.56Z"/>
      <path class="cls-1" d="M68.92,1.48h-3.35c-.21,0-.37-.17-.37-.37v-.56c0-.19.15-.37.37-.37h8.16c.21,0,.37.17.37.37v.56c0,.19-.15.37-.37.37h-3.35v11.81c0,.19-.17.37-.37.37h-.73c-.19,0-.37-.17-.37-.37V1.48Z"/>
      <path class="cls-1" d="M73.64,13.16L79.49.21c.06-.12.15-.21.33-.21h.19c.17,0,.27.1.33.21l5.81,12.95c.12.25-.04.5-.33.5h-.77c-.17,0-.29-.12-.33-.21l-1.42-3.17h-6.83l-1.41,3.17c-.04.1-.15.21-.33.21h-.77c-.29,0-.44-.25-.33-.5ZM82.78,9.08c-.94-2.1-1.87-4.21-2.81-6.31h-.15l-2.81,6.31h5.77Z"/>
      <path class="cls-1" d="M88.24.56c0-.19.15-.37.37-.37h4.98c2.31,0,4.19,1.81,4.19,4.1,0,1.77-1.17,3.25-2.85,3.93l2.64,4.89c.13.25,0,.56-.33.56h-.98c-.17,0-.27-.1-.31-.17l-2.56-5.1h-3.67v4.91c0,.19-.17.37-.37.37h-.75c-.21,0-.37-.17-.37-.37V.56ZM93.5,7.12c1.48,0,2.77-1.23,2.77-2.81,0-1.46-1.29-2.71-2.77-2.71h-3.73v5.52h3.73Z"/>
    </g>
  </g>
</svg>